<?xml version="1.0" encoding="utf-8"?><!DOCTYPE svg PUBLIC "-//W3C//DTD SVG 1.1//EN" "http://www.w3.org/Graphics/SVG/1.1/DTD/svg11.dtd"><svg viewBox="0 0 2000 2000" xmlns="http://www.w3.org/2000/svg" xmlns:xlink="http://www.w3.org/1999/xlink"><style>:root>svg{display:none}:root>svg:target{display:block}</style><svg viewBox="0 0 48 48" id="inst" xmlns="http://www.w3.org/2000/svg"><radialGradient id="aa" cx="19.38" cy="42.035" r="44.899" gradientUnits="userSpaceOnUse"><stop offset="0" stop-color="#fd5"/><stop offset=".328" stop-color="#ff543f"/><stop offset=".348" stop-color="#fc5245"/><stop offset=".504" stop-color="#e64771"/><stop offset=".643" stop-color="#d53e91"/><stop offset=".761" stop-color="#cc39a4"/><stop offset=".841" stop-color="#c837ab"/></radialGradient><path fill="url(#aa)" d="M34.017 41.99l-20 .019c-4.4.004-8.003-3.592-8.008-7.992l-.019-20c-.004-4.4 3.592-8.003 7.992-8.008l20-.019c4.4-.004 8.003 3.592 8.008 7.992l.019 20c.005 4.401-3.592 8.004-7.992 8.008z"/><radialGradient id="ab" cx="11.786" cy="5.54" r="29.813" gradientTransform="matrix(1 0 0 .6663 0 1.849)" gradientUnits="userSpaceOnUse"><stop offset="0" stop-color="#4168c9"/><stop offset=".999" stop-color="#4168c9" stop-opacity="0"/></radialGradient><path fill="url(#ab)" d="M34.017 41.99l-20 .019c-4.4.004-8.003-3.592-8.008-7.992l-.019-20c-.004-4.4 3.592-8.003 7.992-8.008l20-.019c4.4-.004 8.003 3.592 8.008 7.992l.019 20c.005 4.401-3.592 8.004-7.992 8.008z"/><path fill="#fff" d="M24 31c-3.859 0-7-3.14-7-7s3.141-7 7-7 7 3.14 7 7-3.141 7-7 7zm0-12c-2.757 0-5 2.243-5 5s2.243 5 5 5 5-2.243 5-5-2.243-5-5-5z"/><circle cx="31.5" cy="16.5" r="1.5" fill="#fff"/><path fill="#fff" d="M30 37H18c-3.859 0-7-3.14-7-7V18c0-3.86 3.141-7 7-7h12c3.859 0 7 3.14 7 7v12c0 3.86-3.141 7-7 7zM18 13c-2.757 0-5 2.243-5 5v12c0 2.757 2.243 5 5 5h12c2.757 0 5-2.243 5-5V18c0-2.757-2.243-5-5-5H18z"/></svg><svg fill="none" viewBox="0 0 60 60" id="telegram" xmlns="http://www.w3.org/2000/svg"><path d="M30 60c16.569 0 30-13.431 30-30C60 13.431 46.569 0 30 0 13.431 0 0 13.431 0 30c0 16.569 13.431 30 30 30z" fill="url(#bpaint0_linear_57972_999)"/><path fill-rule="evenodd" clip-rule="evenodd" d="M13.58 29.683l17.495-7.536c8.331-3.465 10.063-4.067 11.19-4.087.249-.004.804.057 1.163.35.304.245.387.578.427.811.04.234.09.766.05 1.181-.451 4.744-2.404 16.256-3.398 21.569-.421 2.248-1.248 3.002-2.05 3.076-1.743.16-3.066-1.152-4.753-2.258l-6.695-4.497c-2.962-1.952-1.042-3.025.646-4.778.442-.459 8.118-7.44 8.266-8.074.018-.08.036-.374-.14-.53-.175-.156-.434-.102-.62-.06-.265.06-4.483 2.848-12.655 8.364-1.197.822-2.281 1.222-3.253 1.201-1.071-.023-3.132-.605-4.663-1.103-1.88-.611-3.372-.934-3.242-1.971.067-.54.811-1.093 2.231-1.658z" fill="#fff"/><defs><linearGradient id="bpaint0_linear_57972_999" x1="30" y1="0" x2="30" y2="59.555" gradientUnits="userSpaceOnUse"><stop stop-color="#2AABEE"/><stop offset="1" stop-color="#229ED9"/></linearGradient></defs></svg><svg viewBox="0 0 284.929 284.929" id="up-button" xmlns="http://www.w3.org/2000/svg"><path d="M282.082 195.285L149.028 62.24c-1.901-1.903-4.088-2.856-6.562-2.856s-4.665.953-6.567 2.856L2.856 195.285C.95 197.191 0 199.378 0 201.853c0 2.474.953 4.664 2.856 6.566l14.272 14.271c1.903 1.903 4.093 2.854 6.567 2.854s4.664-.951 6.567-2.854l112.204-112.202 112.208 112.209c1.902 1.903 4.093 2.848 6.563 2.848 2.478 0 4.668-.951 6.57-2.848l14.274-14.277c1.902-1.902 2.847-4.093 2.847-6.566.001-2.476-.944-4.666-2.846-6.569z"/></svg><svg viewBox="0 0 48 48" id="vk" xmlns="http://www.w3.org/2000/svg"><path fill="#1976d2" d="M42 37a5 5 0 01-5 5H11a5 5 0 01-5-5V11a5 5 0 015-5h26a5 5 0 015 5v26z"/><path fill="#fff" d="M35.937 18.041c.046-.151.068-.291.062-.416-.015-.362-.264-.625-.85-.625h-2.618c-.661 0-.966.4-1.144.801 0 0-1.632 3.359-3.513 5.574-.61.641-.92.625-1.25.625-.177 0-.624-.214-.624-.801v-5.185c0-.694-.173-1.014-.732-1.014h-4.649c-.407 0-.619.32-.619.641 0 .667.898.827 1 2.696v3.623c0 .88-.153 1.04-.483 1.04-.89 0-2.642-3-3.815-6.932-.254-.774-.508-1.068-1.169-1.068H12.89c-.763 0-.89.374-.89.774 0 .721.6 4.619 3.875 9.101C18.25 30.125 21.379 32 24.149 32c1.678 0 1.85-.427 1.85-1.094v-2.972c.001-.801.184-.934.718-.934.381 0 1.158.25 2.658 2 1.73 2.018 2.044 3 3.036 3h2.618c.608 0 .957-.255.971-.75a1.542 1.542 0 00-.056-.424c-.194-.576-1.084-1.984-2.194-3.326-.615-.743-1.222-1.479-1.501-1.879-.187-.261-.258-.445-.249-.621.009-.185.105-.361.249-.607-.026 0 3.358-4.751 3.688-6.352z"/></svg><svg viewBox="0 0 1024 1024" id="whatsapp" xmlns="http://www.w3.org/2000/svg"><defs><path id="ea" d="M1023.941 765.153c0 5.606-.171 17.766-.508 27.159-.824 22.982-2.646 52.639-5.401 66.151-4.141 20.306-10.392 39.472-18.542 55.425-9.643 18.871-21.943 35.775-36.559 50.364-14.584 14.56-31.472 26.812-50.315 36.416-16.036 8.172-35.322 14.426-55.744 18.549-13.378 2.701-42.812 4.488-65.648 5.3-9.402.336-21.564.505-27.15.505l-504.226-.081c-5.607 0-17.765-.172-27.158-.509-22.983-.824-52.639-2.646-66.152-5.4-20.306-4.142-39.473-10.392-55.425-18.542-18.872-9.644-35.775-21.944-50.364-36.56-14.56-14.584-26.812-31.471-36.415-50.314-8.174-16.037-14.428-35.323-18.551-55.744-2.7-13.378-4.487-42.812-5.3-65.649-.334-9.401-.503-21.563-.503-27.148l.08-504.228c0-5.607.171-17.766.508-27.159.825-22.983 2.646-52.639 5.401-66.151 4.141-20.306 10.391-39.473 18.542-55.426C34.154 93.24 46.455 76.336 61.07 61.747c14.584-14.559 31.472-26.812 50.315-36.416 16.037-8.172 35.324-14.426 55.745-18.549 13.377-2.701 42.812-4.488 65.648-5.3 9.402-.335 21.565-.504 27.149-.504l504.227.081c5.608 0 17.766.171 27.159.508 22.983.825 52.638 2.646 66.152 5.401 20.305 4.141 39.472 10.391 55.425 18.542 18.871 9.643 35.774 21.944 50.363 36.559 14.559 14.584 26.812 31.471 36.415 50.315 8.174 16.037 14.428 35.323 18.551 55.744 2.7 13.378 4.486 42.812 5.3 65.649.335 9.402.504 21.564.504 27.15l-.082 504.226z"/></defs><linearGradient id="eb" gradientUnits="userSpaceOnUse" x1="512.001" y1=".978" x2="512.001" y2="1025.023"><stop offset="0" stop-color="#61fd7d"/><stop offset="1" stop-color="#2bb826"/></linearGradient><use xlink:href="#ea" overflow="visible" fill="url(#eb)"/><path fill="#FFF" d="M783.302 243.246c-69.329-69.387-161.529-107.619-259.763-107.658-202.402 0-367.133 164.668-367.214 367.072-.026 64.699 16.883 127.854 49.017 183.522l-52.096 190.229 194.665-51.047c53.636 29.244 114.022 44.656 175.482 44.682h.151c202.382 0 367.128-164.688 367.21-367.094.039-98.087-38.121-190.319-107.452-259.706zM523.544 808.047h-.125c-54.767-.021-108.483-14.729-155.344-42.529l-11.146-6.612-115.517 30.293 30.834-112.592-7.259-11.544c-30.552-48.579-46.688-104.729-46.664-162.379.066-168.229 136.985-305.096 305.339-305.096 81.521.031 158.154 31.811 215.779 89.482s89.342 134.332 89.312 215.859c-.066 168.243-136.984 305.118-305.209 305.118zm167.415-228.515c-9.177-4.591-54.286-26.782-62.697-29.843-8.41-3.062-14.526-4.592-20.645 4.592-6.115 9.182-23.699 29.843-29.053 35.964-5.352 6.122-10.704 6.888-19.879 2.296-9.176-4.591-38.74-14.277-73.786-45.526-27.275-24.319-45.691-54.359-51.043-63.543-5.352-9.183-.569-14.146 4.024-18.72 4.127-4.109 9.175-10.713 13.763-16.069 4.587-5.355 6.117-9.183 9.175-15.304 3.059-6.122 1.529-11.479-.765-16.07-2.293-4.591-20.644-49.739-28.29-68.104-7.447-17.886-15.013-15.466-20.645-15.747-5.346-.266-11.469-.322-17.585-.322s-16.057 2.295-24.467 11.478-32.113 31.374-32.113 76.521c0 45.147 32.877 88.764 37.465 94.885 4.588 6.122 64.699 98.771 156.741 138.502 21.892 9.45 38.982 15.094 52.308 19.322 21.98 6.979 41.982 5.995 57.793 3.634 17.628-2.633 54.284-22.189 61.932-43.615 7.646-21.427 7.646-39.791 5.352-43.617-2.294-3.826-8.41-6.122-17.585-10.714z"/></svg></svg>